<svg id="Layer_1" data-name="Layer 1" xmlns="http://www.w3.org/2000/svg" xmlns:xlink="http://www.w3.org/1999/xlink" viewBox="0 0 817.01 817.35"><defs><style>.cls-1{fill:url(#linear-gradient);}.cls-2{fill:url(#linear-gradient-2);}.cls-3{fill:url(#linear-gradient-3);}.cls-4{fill:url(#linear-gradient-4);}.cls-5{fill:url(#linear-gradient-5);}.cls-6{fill:url(#linear-gradient-6);}.cls-7{fill:url(#linear-gradient-7);}.cls-8{fill:url(#New_Gradient_Swatch_copy_4);}.cls-9{fill:url(#linear-gradient-8);}.cls-10{fill:url(#linear-gradient-9);}.cls-11{fill:url(#linear-gradient-10);}.cls-12{fill:url(#linear-gradient-11);}.cls-13{fill:url(#linear-gradient-12);}.cls-14{fill:url(#linear-gradient-13);}.cls-15{fill:url(#New_Gradient_Swatch_copy_4-2);}</style><linearGradient id="linear-gradient" x1="1194.49" y1="1744.46" x2="1577.55" y2="1246.61" gradientUnits="userSpaceOnUse"><stop offset="0" stop-color="#fbb040"/><stop offset="0.02" stop-color="#faac41"/><stop offset="0.36" stop-color="#ec6e4c"/><stop offset="0.65" stop-color="#e24255"/><stop offset="0.87" stop-color="#dc265a"/><stop offset="1" stop-color="#da1c5c"/></linearGradient><linearGradient id="linear-gradient-2" x1="1342.23" y1="1473.53" x2="1543.11" y2="1473.53" gradientUnits="userSpaceOnUse"><stop offset="0" stop-color="#da1c5c"/><stop offset="0.04" stop-color="#de2f58"/><stop offset="0.11" stop-color="#e65252"/><stop offset="0.19" stop-color="#ed6f4c"/><stop offset="0.28" stop-color="#f28748"/><stop offset="0.39" stop-color="#f69944"/><stop offset="0.51" stop-color="#f9a642"/><stop offset="0.67" stop-color="#fbae40"/><stop offset="1" stop-color="#fbb040"/></linearGradient><linearGradient id="linear-gradient-3" x1="1382.32" y1="1538.5" x2="1536.49" y2="1538.5" gradientUnits="userSpaceOnUse"><stop offset="0" stop-color="#45d3a2"/><stop offset="0.19" stop-color="#49d3a1"/><stop offset="0.37" stop-color="#54d59f"/><stop offset="0.55" stop-color="#67d79a"/><stop offset="0.73" stop-color="#82da94"/><stop offset="0.9" stop-color="#a4de8c"/><stop offset="1" stop-color="#bce187"/></linearGradient><linearGradient id="linear-gradient-4" x1="372.38" y1="204.91" x2="474.55" y2="204.91" gradientUnits="userSpaceOnUse"><stop offset="0" stop-color="#bce187"/><stop offset="0.2" stop-color="#aadf8b"/><stop offset="0.6" stop-color="#7ad996"/><stop offset="1" stop-color="#45d3a2"/></linearGradient><linearGradient id="linear-gradient-5" x1="1198.74" y1="1312.46" x2="1521.39" y2="1312.46" gradientTransform="translate(69.88 -55.5) rotate(3.2)" gradientUnits="userSpaceOnUse"><stop offset="0" stop-color="#da1c5c"/><stop offset="0.41" stop-color="#e95e4f"/><stop offset="0.81" stop-color="#f69944"/><stop offset="1" stop-color="#fbb040"/></linearGradient><linearGradient id="linear-gradient-6" x1="1331.48" y1="1532.09" x2="1420.27" y2="1532.09" gradientUnits="userSpaceOnUse"><stop offset="0" stop-color="#da1c5c"/><stop offset="0.13" stop-color="#df3358"/><stop offset="0.55" stop-color="#ee764b"/><stop offset="0.85" stop-color="#f7a043"/><stop offset="1" stop-color="#fbb040"/></linearGradient><linearGradient id="linear-gradient-7" x1="1593.78" y1="1664.95" x2="1619.09" y2="1037.32" gradientUnits="userSpaceOnUse"><stop offset="0" stop-color="#bce187"/><stop offset="0.04" stop-color="#addf8a"/><stop offset="0.15" stop-color="#8ddc92"/><stop offset="0.27" stop-color="#73d898"/><stop offset="0.4" stop-color="#5ed69c"/><stop offset="0.54" stop-color="#50d4a0"/><stop offset="0.71" stop-color="#48d3a1"/><stop offset="1" stop-color="#45d3a2"/></linearGradient><linearGradient id="New_Gradient_Swatch_copy_4" x1="1331.48" y1="1597.08" x2="1420.27" y2="1597.08" gradientUnits="userSpaceOnUse"><stop offset="0" stop-color="#fbb040"/><stop offset="0.57" stop-color="#e85950"/><stop offset="1" stop-color="#da1c5c"/></linearGradient><linearGradient id="linear-gradient-8" x1="1331.48" y1="1597.08" x2="1420.27" y2="1597.08" xlink:href="#linear-gradient-3"/><linearGradient id="linear-gradient-9" x1="1246.42" y1="1734.63" x2="1343.02" y2="1734.63" gradientUnits="userSpaceOnUse"><stop offset="0" stop-color="#da1c5c"/><stop offset="0.1" stop-color="#e24055"/><stop offset="0.21" stop-color="#ea624f"/><stop offset="0.33" stop-color="#f07f49"/><stop offset="0.46" stop-color="#f59545"/><stop offset="0.6" stop-color="#f8a442"/><stop offset="0.77" stop-color="#faad41"/><stop offset="1" stop-color="#fbb040"/></linearGradient><linearGradient id="linear-gradient-10" x1="1280.36" y1="1661.56" x2="1908.51" y2="1661.56" xlink:href="#linear-gradient-4"/><linearGradient id="linear-gradient-11" x1="1246.42" y1="1661.56" x2="1343.02" y2="1661.56" gradientUnits="userSpaceOnUse"><stop offset="0" stop-color="#45d3a2"/><stop offset="0.25" stop-color="#48d3a1"/><stop offset="0.43" stop-color="#51d49f"/><stop offset="0.58" stop-color="#60d69c"/><stop offset="0.72" stop-color="#76d997"/><stop offset="0.85" stop-color="#93dc90"/><stop offset="0.98" stop-color="#b5e089"/><stop offset="1" stop-color="#bce187"/></linearGradient><linearGradient id="linear-gradient-12" x1="1396.47" y1="1644.5" x2="1524.81" y2="1644.5" gradientUnits="userSpaceOnUse"><stop offset="0" stop-color="#45d3a2"/><stop offset="0.43" stop-color="#47d3a2"/><stop offset="0.59" stop-color="#4ed4a0"/><stop offset="0.7" stop-color="#59d59d"/><stop offset="0.79" stop-color="#6ad79a"/><stop offset="0.87" stop-color="#80da95"/><stop offset="0.94" stop-color="#9bdd8e"/><stop offset="1" stop-color="#bae187"/><stop offset="1" stop-color="#bce187"/></linearGradient><linearGradient id="linear-gradient-13" x1="1203.53" y1="1361.9" x2="1469.27" y2="1361.9" xlink:href="#linear-gradient-4"/><linearGradient id="New_Gradient_Swatch_copy_4-2" x1="342.12" y1="613.4" x2="444.29" y2="613.4" xlink:href="#New_Gradient_Swatch_copy_4"/></defs><path class="cls-1" d="M1719.08,1311.36c-7.86,105.79-94.92,186.76-198.81,189.15q-3.32.08-6.64,0-6.69-.06-13.46-.56l-.55,0a203.66,203.66,0,0,0-116.82,26.87,2.61,2.61,0,0,0-.28.17h0c-2.17,1.25-4.32,2.56-6.44,3.9h0a206.83,206.83,0,0,0-22.71,16.62,204.74,204.74,0,0,0-70.49,186c13.45,91.77,88.45,165.39,184.41,173.74l-3.93-.34-.31,0a406.61,406.61,0,0,1-207.82-79.8c-1.09-.81-2.17-1.63-3.25-2.46-105.8-81-169.93-212.14-159.33-355a406.77,406.77,0,0,1,99.1-237.82c1.67-1.92,3.36-3.84,5.07-5.72,81.68-90.38,202.74-143.45,333.64-133.72q2.91.21,5.79.51h.15C1645.93,1104.29,1727.29,1200.82,1719.08,1311.36Z" transform="translate(-1091.49 -1091.32)"/><path class="cls-2" d="M1497.85,1499.09a93.9,93.9,0,0,0-14.1-5c-87-23-81.93-74.37-81.93-74.37l-17.25,10.9A221.91,221.91,0,0,0,1358,1450.4c-1.06.93-1.91,1.68-2.39,2.14-26.87,25.94-10.82,58.61,27.67,74.77A211.29,211.29,0,0,1,1497.85,1499.09Z" transform="translate(-1091.49 -1091.32)"/><path class="cls-3" d="M1443.49,1537.11c79.2-4.69,87,41,87,41,14.6-30.29-.37-49.64-15.26-64.76-6.12-6.21-9.57-10.63-17.42-14.26-40.19-1.73-82.88,8.25-115.53,27.83C1398.89,1534.16,1420.05,1538.5,1443.49,1537.11Z" transform="translate(-1091.49 -1091.32)"/><circle class="cls-4" cx="423.47" cy="204.91" r="51.08"/><path class="cls-5" d="M1505.79,1420.78c-4.62,8.49-10.38,17.85-15.29,22,0,0-7.68-51.5-50.3-74.14s-165.38-76.3-203.28-104.05c-24.88-18.23-31.6-14.76-38-41,1.78-1.83,3.57-3.64,5.39-5.43,11.08,6.19,44.68,20.33,146.16,53.37,60.25,19.61,100.28,42.25,125.35,63a161.63,161.63,0,0,1,16,15.16,94.38,94.38,0,0,1,14.65,20.36A54.29,54.29,0,0,1,1505.79,1420.78Z" transform="translate(-1091.49 -1091.32)"/><path class="cls-6" d="M1352.39,1516.92a271.72,271.72,0,0,1,1,30.33,207.48,207.48,0,0,1,22.52-16.43A155.07,155.07,0,0,1,1352.39,1516.92Z" transform="translate(-1091.49 -1091.32)"/><path class="cls-7" d="M1532.73,1092.68c111.22,9.67,194.29,107,186,218.68-8.36,112.55-106.36,197-218.9,188.64-2.33-.17-4.66-.29-7-.39a84.79,84.79,0,0,1,21.54,13.71c15.57,13.68,30.62,35.83,16.14,64.79,0,0-8.75-46.57-87.44-42-23.28,1.35-44-2.42-60.48-9.34-2.27,1.32-4.51,2.67-6.73,4.07,12.6,6.06,28.73,11.69,44.39,11.08,0,0-42.52,82.78-88.79,121.43,0,0,20.54-53.48,21.88-116.08a204.07,204.07,0,0,0-63.51,94.86h0c.14-.1.29-.2.43-.28C1324.52,1619.7,1343,1589,1343,1589s-1.56,48.35-18.91,78.15c-10,17.16-26.1,34.22-41.25,66.46l-.26.56h0c13.79,92.35,89.94,166.19,187,173.39,225.07,16.72,421.08-152.19,437.8-377.27C1924,1306.07,1756.49,1110.72,1532.73,1092.68Z" transform="translate(-1091.49 -1091.32)"/><path class="cls-8" d="M1420.27,1541.9c-15.66.61-31.79-5-44.39-11.08a207.48,207.48,0,0,0-22.52,16.43c-1.34,62.6-21.88,116.08-21.88,116.08C1377.75,1624.68,1420.27,1541.9,1420.27,1541.9Z" transform="translate(-1091.49 -1091.32)"/><path class="cls-9" d="M1420.27,1541.9c-15.66.61-31.79-5-44.39-11.08a207.48,207.48,0,0,0-22.52,16.43c-1.34,62.6-21.88,116.08-21.88,116.08C1377.75,1624.68,1420.27,1541.9,1420.27,1541.9Z" transform="translate(-1091.49 -1091.32)"/><path class="cls-10" d="M1280.93,1688.64a204.87,204.87,0,0,1,8.92-46.53c-1.69,1.07-3.4,2.13-5.15,3.16-51,30-38.23,143.44-32.74,179.42,1.08.83,2.16,1.65,3.25,2.46,7.14-41.44,17-70.8,27.39-93A204.74,204.74,0,0,1,1280.93,1688.64Z" transform="translate(-1091.49 -1091.32)"/><path class="cls-11" d="M1282.86,1733.58c15.15-32.24,31.26-49.3,41.25-66.46,17.35-29.8,18.91-78.15,18.91-78.15s-18.5,30.73-52.74,52.86c-.14.08-.29.18-.43.28h0a205.9,205.9,0,0,0-7.25,92h0Z" transform="translate(-1091.49 -1091.32)"/><path class="cls-12" d="M1282.86,1733.58c15.15-32.24,31.26-49.3,41.25-66.46,17.35-29.8,18.91-78.15,18.91-78.15s-18.5,30.73-52.74,52.86c-.14.08-.29.18-.43.28h0a205.9,205.9,0,0,0-7.25,92h0Z" transform="translate(-1091.49 -1091.32)"/><path class="cls-13" d="M1495.53,1550.1l-2.76,24.89s-102.9,11-96,163.92c0,0,41-94.14,128-155.45,0,0-13.19-28.55-29.28-33.36" transform="translate(-1091.49 -1091.32)"/><path class="cls-14" d="M1203.53,1260.92c23,19.54,180.63,86.13,216.63,102.85,6.59,3.06,12.53,6.46,17.82,9.44,22.11,12.46,51.86,43.69,10.87,89.67,0,0,7.11-20.76-49.52-64.56A155.38,155.38,0,0,0,1371,1381c-31.25-14.86-101.8-44.88-143.6-86.86a127.3,127.3,0,0,1-20.29-26.83Z" transform="translate(-1091.49 -1091.32)"/><circle class="cls-15" cx="393.2" cy="613.4" r="51.08"/></svg>