<svg id="Layer_1" data-name="Layer 1" xmlns="http://www.w3.org/2000/svg" xmlns:xlink="http://www.w3.org/1999/xlink" viewBox="0 0 2329.17 715.34"><defs><style>.cls-1{fill:url(#linear-gradient);}.cls-2{fill:url(#linear-gradient-2);}.cls-3{fill:url(#linear-gradient-3);}.cls-4{fill:url(#linear-gradient-4);}.cls-5{fill:url(#linear-gradient-5);}.cls-6{fill:url(#linear-gradient-6);}.cls-7{fill:url(#linear-gradient-7);}.cls-8{fill:url(#linear-gradient-8);}.cls-9{fill:url(#linear-gradient-9);}.cls-10{fill:url(#linear-gradient-10);}.cls-11{fill:url(#linear-gradient-11);}.cls-12{fill:url(#linear-gradient-12);}.cls-13{fill:url(#linear-gradient-13);}.cls-14{fill:url(#linear-gradient-14);}.cls-15{fill:url(#linear-gradient-15);}.cls-16,.cls-17{isolation:isolate;font-family:ArialMT, Arial;}.cls-16{font-size:349.58px;}.cls-17{font-size:125.22px;}.cls-18{letter-spacing:-0.06em;}.cls-19{letter-spacing:0em;}.cls-20{letter-spacing:-0.02em;}.cls-21{letter-spacing:-0.04em;}</style><linearGradient id="linear-gradient" x1="283.65" y1="1337.06" x2="618.89" y2="1772.76" gradientTransform="matrix(1, 0, 0, -1, 0, 3000)" gradientUnits="userSpaceOnUse"><stop offset="0" stop-color="#fbb040"/><stop offset="0.02" stop-color="#faac41"/><stop offset="0.36" stop-color="#ec6e4c"/><stop offset="0.65" stop-color="#e24255"/><stop offset="0.87" stop-color="#dc265a"/><stop offset="1" stop-color="#da1c5c"/></linearGradient><linearGradient id="linear-gradient-2" x1="412.94" y1="1574.18" x2="588.75" y2="1574.18" gradientTransform="matrix(1, 0, 0, -1, 0, 3000)" gradientUnits="userSpaceOnUse"><stop offset="0" stop-color="#da1c5c"/><stop offset="0.04" stop-color="#de2f58"/><stop offset="0.11" stop-color="#e65252"/><stop offset="0.19" stop-color="#ed6f4c"/><stop offset="0.28" stop-color="#f28748"/><stop offset="0.39" stop-color="#f69944"/><stop offset="0.51" stop-color="#f9a642"/><stop offset="0.67" stop-color="#fbae40"/><stop offset="1" stop-color="#fbb040"/></linearGradient><linearGradient id="linear-gradient-3" x1="448.03" y1="1517.31" x2="582.96" y2="1517.31" gradientTransform="matrix(1, 0, 0, -1, 0, 3000)" gradientUnits="userSpaceOnUse"><stop offset="0" stop-color="#45d3a2"/><stop offset="0.19" stop-color="#49d3a1"/><stop offset="0.37" stop-color="#54d59f"/><stop offset="0.55" stop-color="#67d79a"/><stop offset="0.73" stop-color="#82da94"/><stop offset="0.9" stop-color="#a4de8c"/><stop offset="1" stop-color="#bce187"/></linearGradient><linearGradient id="linear-gradient-4" x1="519.4" y1="1729.34" x2="608.82" y2="1729.34" gradientTransform="matrix(1, 0, 0, -1, -193.5, 1908.67)" gradientUnits="userSpaceOnUse"><stop offset="0" stop-color="#bce187"/><stop offset="0.2" stop-color="#aadf8b"/><stop offset="0.6" stop-color="#7ad996"/><stop offset="1" stop-color="#45d3a2"/></linearGradient><linearGradient id="linear-gradient-5" x1="235.06" y1="1633.71" x2="517.45" y2="1633.71" gradientTransform="matrix(1, 0.06, 0.06, -1, -43.29, 2911.05)" gradientUnits="userSpaceOnUse"><stop offset="0" stop-color="#da1c5c"/><stop offset="0.41" stop-color="#e95e4f"/><stop offset="0.81" stop-color="#f69944"/><stop offset="1" stop-color="#fbb040"/></linearGradient><linearGradient id="linear-gradient-6" x1="403.53" y1="1522.93" x2="481.24" y2="1522.93" gradientTransform="matrix(1, 0, 0, -1, 0, 3000)" gradientUnits="userSpaceOnUse"><stop offset="0" stop-color="#da1c5c"/><stop offset="0.13" stop-color="#df3358"/><stop offset="0.55" stop-color="#ee764b"/><stop offset="0.85" stop-color="#f7a043"/><stop offset="1" stop-color="#fbb040"/></linearGradient><linearGradient id="linear-gradient-7" x1="633.09" y1="1406.65" x2="655.24" y2="1955.94" gradientTransform="matrix(1, 0, 0, -1, 0, 3000)" gradientUnits="userSpaceOnUse"><stop offset="0" stop-color="#bce187"/><stop offset="0.04" stop-color="#addf8a"/><stop offset="0.15" stop-color="#8ddc92"/><stop offset="0.27" stop-color="#73d898"/><stop offset="0.4" stop-color="#5ed69c"/><stop offset="0.54" stop-color="#50d49f"/><stop offset="0.71" stop-color="#48d3a1"/><stop offset="1" stop-color="#45d3a2"/></linearGradient><linearGradient id="linear-gradient-8" x1="403.53" y1="1466.04" x2="481.24" y2="1466.04" gradientTransform="matrix(1, 0, 0, -1, 0, 3000)" gradientUnits="userSpaceOnUse"><stop offset="0" stop-color="#fbb040"/><stop offset="0.57" stop-color="#e85950"/><stop offset="1" stop-color="#da1c5c"/></linearGradient><linearGradient id="linear-gradient-9" x1="403.53" y1="1466.04" x2="481.24" y2="1466.04" xlink:href="#linear-gradient-3"/><linearGradient id="linear-gradient-10" x1="329.08" y1="1345.66" x2="413.63" y2="1345.66" gradientTransform="matrix(1, 0, 0, -1, 0, 3000)" gradientUnits="userSpaceOnUse"><stop offset="0" stop-color="#da1c5c"/><stop offset="0.1" stop-color="#e24055"/><stop offset="0.21" stop-color="#ea624f"/><stop offset="0.33" stop-color="#f07f49"/><stop offset="0.46" stop-color="#f59545"/><stop offset="0.6" stop-color="#f8a442"/><stop offset="0.77" stop-color="#faad41"/><stop offset="1" stop-color="#fbb040"/></linearGradient><linearGradient id="linear-gradient-11" x1="358.79" y1="1409.62" x2="908.53" y2="1409.62" gradientTransform="matrix(1, 0, 0, -1, 0, 3000)" xlink:href="#linear-gradient-4"/><linearGradient id="linear-gradient-12" x1="329.09" y1="1409.62" x2="413.64" y2="1409.62" gradientTransform="matrix(1, 0, 0, -1, 0, 3000)" gradientUnits="userSpaceOnUse"><stop offset="0" stop-color="#45d3a2"/><stop offset="0.25" stop-color="#48d3a1"/><stop offset="0.43" stop-color="#51d49f"/><stop offset="0.58" stop-color="#60d69c"/><stop offset="0.72" stop-color="#76d997"/><stop offset="0.85" stop-color="#93dc90"/><stop offset="0.98" stop-color="#b5e089"/><stop offset="1" stop-color="#bce187"/></linearGradient><linearGradient id="linear-gradient-13" x1="460.41" y1="1424.54" x2="572.72" y2="1424.54" gradientTransform="matrix(1, 0, 0, -1, 0, 3000)" gradientUnits="userSpaceOnUse"><stop offset="0" stop-color="#45d3a2"/><stop offset="0.43" stop-color="#47d3a2"/><stop offset="0.59" stop-color="#4ed4a0"/><stop offset="0.7" stop-color="#59d59d"/><stop offset="0.79" stop-color="#6ad79a"/><stop offset="0.87" stop-color="#80da95"/><stop offset="0.94" stop-color="#9bdd8e"/><stop offset="1" stop-color="#bae187"/><stop offset="1" stop-color="#bce187"/></linearGradient><linearGradient id="linear-gradient-14" x1="291.55" y1="1671.87" x2="524.13" y2="1671.87" gradientTransform="matrix(1, 0, 0, -1, 0, 3000)" xlink:href="#linear-gradient-4"/><linearGradient id="linear-gradient-15" x1="492.92" y1="1371.84" x2="582.34" y2="1371.84" gradientTransform="matrix(0.07, 1, 1, -0.07, -868.87, 1189.13)" xlink:href="#linear-gradient-8"/></defs><path class="cls-1" d="M742.75,1283.9a178.82,178.82,0,0,1-174,165.53c-1.94,0-3.87.06-5.81,0-3.9,0-7.83-.19-11.77-.49l-.48,0a178.22,178.22,0,0,0-102.24,23.51c-.08,0-.17.09-.25.15a0,0,0,0,0,0,0q-2.85,1.65-5.64,3.42h0a178.82,178.82,0,0,0,79.83,329.43c-1.15-.09-2.3-.19-3.44-.3l-.27,0a355.86,355.86,0,0,1-181.88-69.84c-.95-.71-1.9-1.43-2.84-2.16-92.59-70.91-148.72-185.65-139.44-310.65a355.94,355.94,0,0,1,86.73-208.14c1.46-1.68,2.94-3.36,4.44-5,71.48-79.1,177.44-125.54,292-117,1.7.12,3.39.28,5.07.45l.13,0A178.8,178.8,0,0,1,742.75,1283.9Z" transform="translate(-193.5 -1091.33)"/><path class="cls-2" d="M549.14,1448.19a82.07,82.07,0,0,0-12.34-4.34c-76.17-20.13-71.7-65.09-71.7-65.09L450,1388.3a193.44,193.44,0,0,0-23.3,17.28c-.93.81-1.67,1.47-2.09,1.87-23.52,22.71-9.47,51.3,24.22,65.43A185,185,0,0,1,549.14,1448.19Z" transform="translate(-193.5 -1091.33)"/><path class="cls-3" d="M501.56,1481.47c69.32-4.11,76.17,35.88,76.17,35.88,12.79-26.5-.32-43.44-13.35-56.67-5.35-5.44-8.37-9.3-15.24-12.48-35.18-1.51-72.53,7.22-101.11,24.36C462.53,1478.89,481.05,1482.69,501.56,1481.47Z" transform="translate(-193.5 -1091.33)"/><circle class="cls-4" cx="370.61" cy="179.33" r="44.71"/><path class="cls-5" d="M556.09,1379.66c-4.05,7.43-9.09,15.62-13.38,19.27,0,0-6.72-45.07-44-64.89S354,1267.27,320.78,1243c-21.77-16-27.65-12.92-33.25-35.87,1.55-1.6,3.12-3.19,4.71-4.75,9.7,5.42,39.11,17.79,127.92,46.71,52.73,17.16,87.76,37,109.7,55.19a139.82,139.82,0,0,1,14,13.26,82.89,82.89,0,0,1,12.82,17.82A47.56,47.56,0,0,1,556.09,1379.66Z" transform="translate(-193.5 -1091.33)"/><path class="cls-6" d="M421.84,1463.8a242.17,242.17,0,0,1,.85,26.54A180.61,180.61,0,0,1,442.4,1476,135.63,135.63,0,0,1,421.84,1463.8Z" transform="translate(-193.5 -1091.33)"/><path class="cls-7" d="M579.66,1092.51A178.82,178.82,0,0,1,550.86,1449c-2-.15-4.08-.26-6.1-.34a74,74,0,0,1,18.85,12c13.63,12,26.8,31.36,14.12,56.7,0,0-7.65-40.76-76.52-36.77-20.37,1.18-38.52-2.12-52.94-8.17q-3,1.72-5.88,3.56c11,5.31,25.14,10.23,38.85,9.69,0,0-37.21,72.45-77.71,106.28,0,0,18-46.81,19.15-101.59a178.65,178.65,0,0,0-55.59,83h0l.38-.25a160.51,160.51,0,0,0,46.16-46.26s-1.37,42.32-16.55,68.4c-8.75,15-22.85,29.94-36.1,58.17l-.23.48h0a178.89,178.89,0,0,0,163.63,151.75c197,14.63,368.52-133.2,383.15-330.18C922.11,1279.27,775.49,1108.3,579.66,1092.51Z" transform="translate(-193.5 -1091.33)"/><path class="cls-8" d="M481.24,1485.66c-13.71.54-27.82-4.38-38.85-9.69a179.65,179.65,0,0,0-19.71,14.38c-1.18,54.78-19.15,101.59-19.15,101.59C444,1558.11,481.24,1485.66,481.24,1485.66Z" transform="translate(-193.5 -1091.33)"/><path class="cls-9" d="M481.24,1485.66c-13.71.54-27.82-4.38-38.85-9.69a179.65,179.65,0,0,0-19.71,14.38c-1.18,54.78-19.15,101.59-19.15,101.59C444,1558.11,481.24,1485.66,481.24,1485.66Z" transform="translate(-193.5 -1091.33)"/><path class="cls-10" d="M359.29,1614.08a179.65,179.65,0,0,1,7.8-40.72c-1.47.94-3,1.87-4.51,2.76-44.65,26.23-33.45,125.54-28.65,157,.94.73,1.89,1.44,2.84,2.16,6.25-36.27,14.9-62,24-81.4A179.9,179.9,0,0,1,359.29,1614.08Z" transform="translate(-193.5 -1091.33)"/><path class="cls-11" d="M361,1653.42c13.25-28.22,27.35-43.15,36.1-58.17,15.18-26.08,16.55-68.4,16.55-68.4a160.66,160.66,0,0,1-46.16,46.26l-.38.25h0a180.37,180.37,0,0,0-6.34,80.55h0C360.83,1653.74,360.91,1653.58,361,1653.42Z" transform="translate(-193.5 -1091.33)"/><path class="cls-12" d="M361,1653.42c13.25-28.22,27.35-43.15,36.1-58.17,15.18-26.08,16.55-68.4,16.55-68.4a160.66,160.66,0,0,1-46.16,46.26l-.38.25h0a180.37,180.37,0,0,0-6.34,80.55h0C360.83,1653.74,360.91,1653.58,361,1653.42Z" transform="translate(-193.5 -1091.33)"/><path class="cls-13" d="M547.1,1492.84l-2.42,21.79s-90,9.66-84,143.46c0,0,35.86-82.39,112-136,0,0-11.53-25-25.62-29.21" transform="translate(-193.5 -1091.33)"/><path class="cls-14" d="M291.55,1239.75c20.13,17.11,158.09,75.38,189.6,90,5.77,2.68,11,5.65,15.59,8.26,19.35,10.91,45.39,38.23,9.51,78.48,0,0,6.22-18.17-43.34-56.5a135.75,135.75,0,0,0-24.76-15.2c-27.35-13-89.1-39.27-125.68-76a111.43,111.43,0,0,1-17.76-23.48Z" transform="translate(-193.5 -1091.33)"/><circle class="cls-15" cx="537.63" cy="1628.16" r="44.71" transform="translate(-1318.05 957.69) rotate(-85.93)"/><text class="cls-16" transform="translate(756.06 385.89)">MyFitPrint</text><text class="cls-17" transform="translate(961.29 597.88)">Assess .<tspan class="cls-18" x="473.19" y="0"> </tspan><tspan class="cls-19" x="501.07" y="0">Act .</tspan><tspan class="cls-20" x="751.57" y="0"> </tspan><tspan class="cls-21" x="784.1" y="0">T</tspan><tspan x="855.94" y="0">ransform</tspan></text></svg>