<svg xmlns="http://www.w3.org/2000/svg" xmlns:xlink="http://www.w3.org/1999/xlink" width="23" height="24" viewBox="0 0 23 24"><defs><style>.a,.c{fill:#fff;}.a{stroke:#707070;}.b{clip-path:url(#a);}</style><clipPath id="a"><rect class="a" width="23" height="24" transform="translate(0.377 0)"/></clipPath></defs><g class="b" transform="translate(-0.377)"><g transform="translate(1.463 0.667)"><g transform="translate(0 0)"><path class="c" d="M215.912,211.456A4.456,4.456,0,1,1,211.456,207,4.456,4.456,0,0,1,215.912,211.456Zm0,0" transform="translate(-200.497 -200.497)"/><path class="c" d="M156.864,138.564a4.427,4.427,0,0,0-2.537-2.537,7.4,7.4,0,0,0-2.482-.46c-1.41-.064-1.833-.078-5.4-.078s-3.992.013-5.4.078a7.4,7.4,0,0,0-2.482.46,4.428,4.428,0,0,0-2.537,2.537,7.4,7.4,0,0,0-.46,2.482c-.064,1.41-.078,1.832-.078,5.4s.014,3.992.078,5.4a7.4,7.4,0,0,0,.46,2.482,4.427,4.427,0,0,0,2.537,2.537,7.388,7.388,0,0,0,2.482.46c1.41.064,1.832.078,5.4.078s3.993-.014,5.4-.078a7.389,7.389,0,0,0,2.482-.46,4.427,4.427,0,0,0,2.537-2.537,7.4,7.4,0,0,0,.46-2.482c.064-1.41.078-1.833.078-5.4s-.013-3.992-.078-5.4A7.386,7.386,0,0,0,156.864,138.564Zm-10.421,14.748a6.864,6.864,0,1,1,6.864-6.864A6.864,6.864,0,0,1,146.444,153.312Zm7.136-12.4a1.6,1.6,0,1,1,1.6-1.6A1.6,1.6,0,0,1,153.579,140.916Zm0,0" transform="translate(-135.485 -135.489)"/></g></g></g></svg>