<svg xmlns="http://www.w3.org/2000/svg" xmlns:xlink="http://www.w3.org/1999/xlink" width="22" height="22" viewBox="0 0 22 22"><defs><style>.a,.c{fill:#fff;}.a{stroke:#707070;}.b{clip-path:url(#a);}</style><clipPath id="a"><rect class="a" width="22" height="22" transform="translate(1065 7994)"/></clipPath></defs><g class="b" transform="translate(-1065 -7994)"><g transform="translate(663.634 7787.141)"><path class="c" d="M462.839,270.929h-3.828c-.072-.231-.074-12.126,0-12.441H462.7c.039.534,0,1.068.026,1.657.064-.076.089-.1.107-.127a4.017,4.017,0,0,1,3.129-1.832,6.1,6.1,0,0,1,2.065.15,3.563,3.563,0,0,1,2.65,2.461,7.7,7.7,0,0,1,.4,2.466c.012,2.44.005,4.881,0,7.322,0,.111-.013.222-.021.347h-3.838a3.02,3.02,0,0,1-.033-.312c0-1.234,0-2.468,0-3.7,0-.959.008-1.918-.021-2.876a4.981,4.981,0,0,0-.183-1.176A1.656,1.656,0,0,0,465.3,261.6a2.957,2.957,0,0,0-1.011.131,1.777,1.777,0,0,0-1.1,1.01,3.7,3.7,0,0,0-.3,1.442c-.019,1.054-.022,2.108-.026,3.162,0,1.13,0,2.26,0,3.39C462.86,270.786,462.849,270.841,462.839,270.929Z" transform="translate(-48.988 -43.445)"/><path class="c" d="M405.853,260.992h3.807c.065.263.055,12.185-.01,12.438h-3.791l-.027-.029c-.006-.007-.017-.014-.018-.022a.892.892,0,0,1-.018-.14q.008-6.066.018-12.132A.526.526,0,0,1,405.853,260.992Z" transform="translate(-2.141 -45.943)"/><path class="c" d="M405.624,213.366a2.254,2.254,0,1,1,2.254-2.306A2.246,2.246,0,0,1,405.624,213.366Z" transform="translate(0 0)"/></g></g></svg>